<?xml version="1.0" standalone="no"?>
<!DOCTYPE svg PUBLIC "-//W3C//DTD SVG 20010904//EN"
 "http://www.w3.org/TR/2001/REC-SVG-20010904/DTD/svg10.dtd">
<svg version="1.0" xmlns="http://www.w3.org/2000/svg"
 width="1080.000000pt" height="1080.000000pt" viewBox="0 0 1080.000000 1080.000000"
 preserveAspectRatio="xMidYMid meet">
<metadata>
Created by potrace 1.14, written by Peter Selinger 2001-2017
</metadata>
<g transform="translate(0.000000,1080.000000) scale(0.100000,-0.100000)"
fill="#000000" stroke="none">
<path d="M4920 10058 c-41 -3 -113 -8 -160 -11 -100 -6 -253 -31 -365 -59
-325 -82 -548 -187 -800 -377 -161 -121 -414 -408 -552 -626 -123 -194 -261
-510 -318 -725 -10 -36 -20 -72 -23 -80 -8 -24 -18 -66 -26 -110 -2 -14 -12
-61 -21 -105 -10 -44 -17 -87 -17 -95 0 -8 -4 -33 -8 -55 -5 -22 -12 -78 -15
-125 -4 -47 -11 -112 -15 -145 -9 -58 -6 -479 4 -540 2 -16 7 -66 10 -110 6
-75 9 -96 21 -170 3 -16 9 -57 15 -90 5 -33 12 -71 15 -85 3 -14 7 -41 10 -60
5 -42 45 -231 50 -239 1 -3 6 -24 9 -46 7 -41 68 -303 86 -365 5 -19 19 -69
30 -110 58 -208 214 -694 249 -775 5 -11 27 -69 50 -130 22 -60 61 -162 87
-225 25 -63 59 -146 74 -185 16 -38 55 -131 88 -205 33 -74 78 -175 100 -225
22 -49 58 -130 81 -180 23 -49 52 -112 64 -140 32 -73 430 -866 449 -895 8
-14 36 -63 60 -110 90 -171 296 -539 431 -770 84 -143 136 -232 156 -265 154
-253 251 -417 251 -424 0 -5 6 -14 14 -20 7 -6 46 -64 85 -129 106 -171 143
-231 249 -396 127 -198 102 -187 434 -184 305 4 294 -5 192 144 -114 167 -277
413 -416 629 -124 192 -388 623 -388 633 0 3 -6 13 -14 21 -13 15 -250 422
-300 514 -12 23 -43 78 -69 123 -26 45 -47 84 -47 88 0 5 -8 20 -18 34 -11 15
-45 77 -77 137 -31 61 -65 124 -75 140 -56 97 -318 616 -438 865 -160 334
-372 815 -372 842 0 8 -4 18 -9 23 -5 6 -19 35 -31 65 -12 30 -26 64 -31 75
-61 143 -219 592 -287 815 -83 275 -157 547 -166 612 -3 18 -11 58 -19 88 -29
115 -38 160 -53 260 -8 60 -10 71 -17 100 -3 14 -9 52 -12 85 -4 32 -8 62 -10
65 -3 6 -10 71 -20 208 -13 164 -8 547 9 692 7 60 29 180 43 235 8 33 16 71
18 85 4 32 61 202 86 255 10 22 25 58 34 80 9 22 28 60 43 85 14 25 27 48 27
51 1 18 123 189 196 274 190 221 474 427 771 559 66 30 226 83 277 92 20 4 44
11 54 16 28 15 159 23 362 23 232 0 312 -7 435 -41 52 -14 113 -30 135 -35
108 -26 356 -132 495 -212 265 -153 533 -410 729 -700 57 -84 179 -312 184
-343 2 -11 8 -28 14 -39 18 -34 54 -147 49 -153 -3 -3 -2 -10 3 -16 14 -16 49
-151 56 -213 3 -29 10 -74 16 -100 20 -92 23 -465 5 -613 -9 -74 -18 -162 -22
-195 -8 -84 -40 -188 -65 -211 -21 -19 -21 -18 -47 12 -15 17 -68 87 -119 155
-225 303 -596 612 -952 793 -30 16 -62 32 -70 36 -112 58 -271 124 -451 188
-104 36 -402 120 -450 126 -19 3 -64 12 -100 20 -36 8 -81 18 -100 21 -19 3
-53 10 -75 15 -22 5 -69 11 -105 15 -81 7 -128 13 -160 20 -14 3 -88 10 -165
15 -77 6 -165 13 -195 17 -109 12 -504 5 -550 -10 -8 -3 -53 -8 -99 -12 -88
-6 -134 -23 -151 -54 -13 -25 -13 -79 0 -117 5 -16 11 -42 14 -59 5 -35 19
-94 53 -220 14 -49 26 -97 28 -105 1 -8 5 -23 9 -32 4 -9 5 -21 2 -27 -4 -5
-2 -12 3 -15 8 -5 46 -119 56 -166 2 -8 15 -46 30 -85 15 -38 34 -90 42 -115
34 -98 156 -373 228 -515 333 -646 684 -1031 1221 -1335 75 -43 308 -139 350
-144 11 -2 26 -6 31 -9 9 -6 51 -16 173 -42 15 -3 79 -11 160 -20 93 -10 268
-6 390 10 61 8 214 42 243 53 15 6 27 10 27 8 0 -9 168 53 245 90 145 68 283
162 394 268 60 58 211 237 211 251 0 3 11 21 24 38 21 27 80 137 178 328 22
43 85 213 104 283 7 26 18 54 24 61 5 6 8 14 5 17 -3 2 2 28 10 56 9 28 20 72
25 99 23 109 41 200 45 233 3 19 7 44 9 55 17 75 24 391 13 580 -11 182 -17
231 -48 390 -5 28 -11 61 -14 75 -50 261 -102 435 -200 680 -50 123 -173 350
-254 465 -260 375 -624 671 -1051 853 -137 58 -217 88 -285 106 -33 9 -82 23
-110 31 -86 24 -207 46 -280 51 -38 2 -94 7 -123 10 -80 8 -238 10 -322 2z"/>
</g>
</svg>
